<svg id="Calque_1" data-name="Calque 1" xmlns="http://www.w3.org/2000/svg" viewBox="0 0 768.1 321"><defs><style>.cls-1{fill:#fff;}.cls-2{fill:#b9b9b9;}.cls-3{fill:#1b2535;}</style></defs><title>table</title><path class="cls-1" d="M97,344.1,136,120H824c12.9,79.4,28.4,149.6,41,224.1-8,0-16-.1-24-.1H127.4C117.3,344,107.2,344.1,97,344.1Z" transform="translate(-97 -120)"/><path class="cls-1" d="M139.4,124H820.6c6.9,42,14.5,81.7,21.9,120.2,6.3,32.7,12.2,63.6,17.8,95.9H101.8Z" transform="translate(-97 -120)"/><path class="cls-1" d="M817.2,128c6.7,40.8,14.2,79.5,21.4,117,6,31,11.6,60.5,16.9,91.1h-749L142.7,128H817.2m6.8-8H136L97,344.1c10.2,0,20.3-.1,30.5-.1H841.1c8,0,16,.1,24,.1C852.4,269.6,836.9,199.4,824,120Z" transform="translate(-97 -120)"/><path id="_2" data-name="2" class="cls-2" d="M97,385V344H865v41H97Z" transform="translate(-97 -120)"/><path class="cls-3" d="M97,385c10.2,0,20.3-.1,30.5-.1H841.1c8,0,16,.1,24,.1v1c-3.6,4.1-7.4,7.9-10.8,12.2C843,412.4,832.1,426.7,821,441H143c-9.4-11.5-18.7-23-28.1-34.3-5.8-7-11.9-13.8-17.9-20.7Z" transform="translate(-97 -120)"/></svg>