<svg id="Calque_1" data-name="Calque 1" xmlns="http://www.w3.org/2000/svg" viewBox="0 0 768 321"><defs><style>.cls-1{fill:#fff;}.cls-2{fill:#b9b9b9;}.cls-3{fill:#292929;}</style></defs><title>table</title><path class="cls-1" d="M97,344.1,136,120H824c12.89,79.42,28.35,149.55,41,224.1-8,0-16-.08-24-.08H127.47C117.31,344,107.16,344.07,97,344.1Z" transform="translate(-97 -120)"/><path id="_2" data-name="2" class="cls-2" d="M97,385V344H865q0,20.5,0,41H97Z" transform="translate(-97 -120)"/><path class="cls-3" d="M97,385c10.16,0,20.31-.09,30.47-.09H841c8,0,16,.06,24,.09v1c-3.61,4.05-7.44,7.94-10.79,12.2C843,412.39,832.06,426.72,821,441H143c-9.37-11.45-18.67-23-28.13-34.33C109,399.67,103,392.88,97,386Z" transform="translate(-97 -120)"/></svg>